HIERARCHY
ROOT Hips
{
  OFFSET 261.033 106.379 -288.553
  CHANNELS 6 Xposition Yposition Zposition Zrotation Xrotation Yrotation
  JOINT ToSpine
  {
    OFFSET -2.69724 7.43032 -0.144315
    CHANNELS 3 Zrotation Xrotation Yrotation
    JOINT Spine
    {
      OFFSET -0.0310711 10.7595 1.96963
      CHANNELS 3 Zrotation Xrotation Yrotation
      JOINT Spine1
      {
        OFFSET 19.9056 3.91189 0.764692
        CHANNELS 3 Zrotation Xrotation Yrotation
        JOINT Neck
        {
          OFFSET 25.9749 7.03908 -0.130764
          CHANNELS 3 Zrotation Xrotation Yrotation
          JOINT Head
          {
            OFFSET 9.52751 0.295786 -0.907742
            CHANNELS 3 Zrotation Xrotation Yrotation
            End Site
            {
              OFFSET 16.4037 0.713936 2.7358
            }
          }
        }
        JOINT LeftShoulder
        {
          OFFSET 17.7449 4.33886 11.7777
          CHANNELS 3 Zrotation Xrotation Yrotation
          JOINT LeftArm
          {
            OFFSET 0.911315 1.27913 9.80584
            CHANNELS 3 Zrotation Xrotation Yrotation
            JOINT LeftForeArm
            {
              OFFSET 28.6126 1.18197 -3.53199
              CHANNELS 3 Zrotation Xrotation Yrotation
              JOINT LeftHand
              {
                OFFSET 27.5088 0.0218783 0.327423
                CHANNELS 3 Zrotation Xrotation Yrotation
                End Site
                {
                  OFFSET 18.6038 -0.000155887 0.382096
                }
              }
            }
          }
        }
        JOINT RightShoulder
        {
          OFFSET 17.1009 2.89543 -12.2328
          CHANNELS 3 Zrotation Xrotation Yrotation
          JOINT RightArm
          {
            OFFSET 1.4228 0.178766 -10.211
            CHANNELS 3 Zrotation Xrotation Yrotation
            JOINT RightForeArm
            {
              OFFSET 28.733 1.87905 2.64907
              CHANNELS 3 Zrotation Xrotation Yrotation
              JOINT RightHand
              {
                OFFSET 27.4588 0.290562 -0.101845
                CHANNELS 3 Zrotation Xrotation Yrotation
                End Site
                {
                  OFFSET 17.8396 -0.255518 -0.000602873
                }
              }
            }
          }
        }
      }
    }
  }
  JOINT LeftUpLeg
  {
    OFFSET -5.61296 -2.22332 -10.2353
    CHANNELS 3 Zrotation Xrotation Yrotation
    JOINT LeftLeg
    {
      OFFSET 2.56703 -44.7417 -7.93097
      CHANNELS 3 Zrotation Xrotation Yrotation
      JOINT LeftFoot
      {
        OFFSET 3.16933 -46.5642 -3.96578
        CHANNELS 3 Zrotation Xrotation Yrotation
        JOINT LeftToeBase
        {
          OFFSET 0.346054 -6.02161 12.8035
          CHANNELS 3 Zrotation Xrotation Yrotation
          End Site
          {
            OFFSET 0.134235 -1.35082 5.13018
          }
        }
      }
    }
  }
  JOINT RightUpLeg
  {
    OFFSET -5.7928 -1.72406 10.6446
    CHANNELS 3 Zrotation Xrotation Yrotation
    JOINT RightLeg
    {
      OFFSET -2.57161 -44.7178 -7.85259
      CHANNELS 3 Zrotation Xrotation Yrotation
      JOINT RightFoot
      {
        OFFSET -3.10148 -46.5936 -4.03391
        CHANNELS 3 Zrotation Xrotation Yrotation
        JOINT RightToeBase
        {
          OFFSET -0.0828122 -6.13587 12.8035
          CHANNELS 3 Zrotation Xrotation Yrotation
          End Site
          {
            OFFSET -0.131328 -1.35082 5.13018
          }
        }
      }
    }
  }
}
MOTION
Frames:	20
Frame Time:	0.0333333
22.2362 103.492 18.485 -75.9821 -13.8255 -176.143 -70.1915 0 88.8779 102.456 70.8035 -10.7999 1.73369 20.3533 4.61014 -141.075 21.8124 167.222 -143.29 58.7649 164.386 2.47015 -3.98782 -36.6829 -102.476 43.2125 -84.2924 -8.23465 50.2966 1.32989 1.05155 0.0230019 2.84171 0.468382 -1.4909 45.6905 -63.9343 -33.0372 104.14 1.95289 0.323272 22.4167 12.4124 -0.427253 -4.50231 -39.9324 -2.5308 86.0479 -1.61629 57.0722 10.4769 5.84623 11.2075 -0.580343 -18.0584 -45.0946 4.22153 -58.8469 11.588 80.5013 -0.569574 33.1939 5.85605 -8.17769 -8.17096 1.16572 -0.969811 -7.49755 -5.61161 
18.7507 103.408 19.6227 -75.3824 -11.5452 -176.73 -70.1915 0 88.8779 102.3 71.3297 -10.48 0.917323 20.7764 4.36978 -142.099 21.6079 167.969 -144.256 58.5849 164.949 2.51352 -3.96038 -37.3342 -105.684 42.3601 -80.0645 -11.0672 51.083 6.13034 -2.35147 -0.0299265 3.95718 0.396047 -1.26237 45.5249 -65.5263 -33.4777 103.61 3.59676 -1.4072 26.5676 11.1795 -0.322163 -3.85254 -38.7163 -2.94717 84.5769 -0.654009 48.4207 10.6795 6.01612 10.7556 -0.625869 -17.7318 -43.9709 3.75793 -60.9595 11.3812 80.9051 -1.06907 32.4639 8.08092 -8.40438 -9.00115 1.17583 -1.12674 -8.08575 -5.3396 
15.2216 103.323 20.8084 -74.6115 -9.69563 -177.08 -70.1915 0 88.8779 100.046 71.7712 -7.4109 1.21762 21.2078 3.22787 -142.805 21.6619 168.658 -144.893 58.7572 166.116 2.48521 -4.1173 -37.5286 -108.811 41.8699 -75.9805 -13.1002 51.7918 9.93871 -4.04214 -0.0930186 4.88532 0.468763 -1.50437 45.1773 -67.2108 -33.9167 103.734 4.91094 -3.55558 29.9926 11.438 -0.415424 -4.75294 -38.3715 -3.45437 82.5392 -0.0794008 38.1363 10.6731 5.50284 10.2568 -0.528944 -15.3251 -40.659 6.62803 -63.2109 10.9687 81.1526 -1.17163 31.1331 9.9623 -9.12372 -9.16775 1.20574 -1.39797 -9.25455 -5.37674 
11.7064 103.315 21.8275 -74.2167 -8.21832 -177.598 -70.1915 0 88.8779 98.6663 72.1503 -6.28941 1.71769 21.4779 2.85801 -144.647 21.4754 169.259 -144.748 58.2973 165.608 2.55354 -3.84701 -37.5403 -111.106 41.7022 -73.3099 -14.6056 53.7868 12.6885 -4.12373 -0.0780412 4.36538 0.502176 -1.6148 45.1081 -67.9728 -33.6131 104.189 6.11881 -5.05709 33.1262 12.0815 -0.323766 -3.59205 -39.1607 -4.09385 80.5748 0.967197 27.1356 10.1529 3.63808 9.57791 -0.168131 -10.7474 -31.194 10.6635 -65.5633 10.2682 81.1431 -1.14695 30.0244 11.1616 -9.01391 -8.65231 1.20477 -1.89737 -11.2641 -4.69262 
8.12759 103.071 22.8246 -74.5322 -7.03421 -177.793 -70.1915 0 88.8779 99.8379 72.2107 -7.6606 1.99057 21.5612 2.604 -145.194 21.5169 170.082 -144.821 58.4156 166.988 2.54651 -3.85109 -37.4357 -112.733 41.6072 -70.6349 -13.8296 52.7103 12.3907 -6.10224 -0.135037 4.58889 0.450097 -1.44623 45.0662 -68.2928 -33.2913 105.02 6.82673 -5.76989 34.9721 11.4949 -0.28489 -3.35919 -40.0379 -2.87348 89.3612 3.35255 17.2715 -3.27015 5.00923 10.1553 -0.42918 -9.49856 -27.0933 10.0441 -68.4204 9.87728 81.0493 -1.0578 29.389 11.6926 -8.81155 -8.39247 1.19673 -2.33015 -13.0461 -3.69235 
4.45489 102.814 23.7604 -74.4819 -5.59994 -177.683 -70.1915 0 88.8779 99.4473 72.4353 -7.154 2.4823 21.822 2.18137 -145.284 21.0333 170.04 -144.213 57.8471 167.353 2.63044 -3.50849 -37.4115 -113.117 41.4762 -69.3266 -13.8627 53.2856 12.5528 -6.36953 -0.183498 5.37973 0.405076 -1.2923 45.4723 -67.973 -32.4526 105.734 7.03249 -5.84086 36.1115 10.0933 -0.2865 -3.82481 -40.0556 -2.2993 90.217 2.64439 12.0376 -6.83964 3.96616 7.19404 -0.322783 -9.32826 -25.5393 7.88483 -70.6431 10.0315 81.8276 -1.20118 29.2614 12.4918 -8.80679 -7.13474 1.20305 -2.90356 -15.6053 -3.82951 
0.744573 102.471 24.8413 -74.304 -4.08561 -177.686 -70.1915 0 88.8779 99.5564 72.7144 -6.94586 2.49779 22.2565 1.64698 -144.848 20.951 170.539 -144.497 57.9099 168.521 2.66105 -3.39058 -37.4319 -113.094 41.3609 -68.2744 -13.5435 51.4735 12.0636 -7.58782 -0.239469 5.64659 0.358898 -1.14649 45.2549 -67.11 -32.3575 106.662 6.79601 -5.57342 35.7986 11.0173 -0.342835 -4.13443 -39.4759 -1.84204 90.8299 2.06274 11.7109 -8.06921 2.58502 5.5055 -0.153847 -9.06297 -25.5282 9.51564 -72.0655 9.91704 83.5783 -1.02757 30.3691 12.8009 -8.66179 -5.7163 1.19994 -3.62394 -18.7381 -3.98433 
-3.3158 102.001 25.9633 -74.3919 -3.65434 -178.1 -70.1915 0 88.8779 98.3704 72.9808 -6.68519 2.55111 22.5277 1.59102 -145.352 21.1869 170.216 -145.144 58.1836 167.815 2.6033 -3.56955 -37.2127 -113.157 41.234 -68.0462 -13.4431 51.281 12.0155 -8.18148 -0.283731 5.99347 0.446433 -1.43036 45.2447 -66.5066 -32.4623 107.048 6.82221 -5.82598 34.6456 10.6919 -0.301796 -3.79148 -38.9291 -2.96804 90.4149 2.58221 15.2838 -5.97827 5.12617 9.01514 -0.484339 -9.73495 -25.7513 5.86484 -73.1307 9.33299 86.5479 -0.0322459 33.1154 10.2072 -8.54596 -5.44628 1.19235 -3.78698 -19.7249 -2.43186 
-7.51041 101.766 26.8862 -75.1561 -3.77953 -178.882 -70.1915 0 88.8779 97.4645 73.2508 -7.93279 2.94025 22.6923 1.83325 -144.903 21.1966 169.246 -144.426 58.2016 167.602 2.57623 -3.73387 -37.4442 -112.558 40.5376 -69.3672 -13.4029 50.7294 11.8818 -8.06435 -0.295548 6.23284 0.479851 -1.52704 45.7118 -65.7775 -32.4371 106.672 6.49886 -5.66672 32.9728 10.3507 -0.257088 -3.38729 -39.2105 -5.0466 89.2935 3.43248 20.1365 -5.90775 5.95707 12.6827 -0.574673 -9.58647 -25.594 6.41323 -74.4353 8.44942 89.6388 1.78621 36.3206 6.04655 -8.35638 -3.7019 1.18038 -3.92654 -20.9443 -0.082553 
-11.6785 101.812 27.764 -76.5678 -3.92492 179.652 -70.1915 0 88.8779 101.461 73.3111 -14.944 1.93601 22.9333 2.3235 -145.189 21.3916 168.402 -144.509 58.4122 166.824 2.53639 -3.81506 -37.105 -112.305 40.1592 -70.7188 -13.122 49.7415 11.644 -9.29583 -0.391957 6.83957 0.486571 -1.53244 46.3601 -64.7628 -32.8873 105.954 5.64386 -4.73461 30.4852 10.7028 -0.307958 -3.85758 -41.2152 -6.92165 87.6375 2.74024 23.7944 -3.88465 6.51343 13.795 -0.684683 -10.0098 -25.7813 4.27995 -74.3335 5.93942 88.0855 2.09761 42.0824 4.42817 -6.90279 -1.51033 1.02504 -3.34814 -19.1667 6.2381 
-15.5883 101.952 28.531 -76.5779 -4.07557 178.926 -70.1915 0 88.8779 99.0508 73.5649 -14.6562 2.16105 22.8061 2.72977 -146.029 21.4027 168.46 -145.003 58.3994 166.483 2.50609 -4.04723 -37.5885 -111.224 39.6809 -73.2299 -13.2875 49.6492 11.6202 -8.92111 -0.404117 7.22487 0.484437 -1.53678 45.9094 -61.8387 -33.4651 106.889 4.84625 -3.78776 27.2469 11.4295 -0.205592 -2.53928 -42.0489 -7.80471 87.5566 2.05904 26.4343 -2.12048 8.20141 13.6593 -1.08619 -10.2683 -26.5938 4.62301 -70.4303 3.36442 85.0207 2.53266 50.4966 1.08737 -5.73349 1.52099 0.833235 -2.55703 -8.39014 16.379 
-19.3627 102.464 29.3581 -76.4366 -3.85979 178.196 -70.1915 0 88.8779 99.2109 73.3229 -16.2851 1.28716 22.5948 2.76085 -146.107 21.2029 168.964 -145.312 58.2214 166.936 2.43947 -4.23013 -37.2044 -110.459 39.9038 -75.5112 -13.2183 48.6994 11.2924 -5.71035 -0.213231 6.46001 0.444423 -1.41512 45.652 -58.8873 -34.1484 107.992 3.94863 -2.31825 24.2265 10.9879 -0.28734 -3.53371 -43.6739 -8.63897 87.8818 1.90567 27.5047 -0.878765 8.59526 11.0159 -1.17328 -8.6214 -22.2396 4.38971 -64.8621 1.53813 84.2224 3.60646 60.3698 -2.91219 -4.25517 5.37799 0.503345 -2.27648 16.0488 18.746 
-22.9964 102.978 30.1135 -76.9633 -3.80288 177.312 -70.1915 0 88.8779 101.197 72.6699 -20.3242 0.573242 22.0263 3.21577 -147.376 20.8006 169.656 -145.838 57.7365 167.034 2.47057 -4.091 -37.1444 -108.908 39.8181 -79.3745 -13.24 49.3295 10.6909 -2.96251 -0.051802 4.39011 0.460867 -1.45074 46.4141 -59.2037 -34.1653 107.446 2.4908 -2.1537 21.812 11.1766 -0.392508 -4.61449 -46.6188 -9.22941 89.5973 1.85232 26.9184 -1.90048 9.28468 11.8351 -1.32763 -9.90282 -25.2256 3.59747 -59.4367 -0.178338 83.8918 5.76687 69.1971 -7.00355 -3.70506 9.47914 0.25373 1.20221 19.5312 7.37691 
-26.6826 103.53 30.7877 -77.5652 -4.2369 177.712 -70.1915 0 88.8779 101.695 72.0802 -20.9581 1.49569 21.4738 2.94399 -148.777 20.6804 170.137 -145.635 57.4083 166.515 2.3686 -4.51812 -37.2124 -107.964 39.8021 -84.198 -13.9717 49.8102 11.4439 0.539415 0.0192603 3.00796 0.554017 -1.74267 46.394 -63.2393 -35.374 105.203 1.49792 -5.09047 19.759 10.9374 -0.388251 -4.6665 -49.6216 -9.21641 90.3049 2.18016 26.7233 -3.38948 9.40946 11.0975 -1.34843 -10.6019 -27.0953 3.86108 -54.6738 -0.610319 82.8048 9.34162 75.2447 -10.4993 -4.38034 8.41947 0.4252 2.29972 16.8664 2.41051 
-30.467 103.998 31.4312 -78.0543 -4.8615 178.732 -70.1915 0 88.8779 102.56 71.3299 -21.0855 1.84002 20.7503 2.63907 -148.025 20.5897 170.583 -145.317 57.3494 167.275 2.31777 -4.6888 -37.0403 -106.728 40.1388 -88.8134 -13.24 48.0326 10.3316 0.537167 0.0232815 3.54276 0.543462 -1.71088 46.3525 -67.2186 -36.7584 101.529 1.13525 -7.66652 18.6479 10.3545 -0.386671 -4.9071 -52.3403 -8.63877 91.2471 2.91461 26.9053 -5.40534 9.35176 9.8209 -1.32489 -11.0426 -28.0486 3.54994 -50.5545 -0.343448 81.435 12.8933 78.1774 -12.9569 -5.22034 7.30757 0.616245 2.12374 11.7769 -0.154213 
-34.2456 104.342 31.9761 -78.0041 -5.74063 179.871 -70.1915 0 88.8779 102.36 70.523 -20.7979 1.38661 19.6728 3.42747 -146.995 20.3685 170.549 -144.971 57.1819 167.929 2.3302 -4.45151 -36.1518 -105.521 41.3382 -92.6263 -11.7305 48.3277 8.18356 1.95193 0.049846 3.74782 0.467009 -1.47094 46.3701 -68.0664 -37.4697 98.961 0.845215 -8.08129 18.2713 9.89298 -0.480747 -6.29253 -54.3605 -7.85996 91.8694 3.3064 27.372 -7.61025 9.44736 9.0124 -1.33668 -11.7779 -29.8777 3.58563 -46.3213 -0.0832265 79.9306 14.3052 78.6649 -12.696 -5.74218 6.50193 0.72933 1.53784 5.97779 -2.50002 
-37.9804 104.617 32.4605 -77.9607 -6.73579 -179.081 -70.1915 0 88.8779 101.627 69.9977 -20.1935 1.19724 18.7532 4.5178 -145.89 20.2678 170.37 -144.261 57.0703 168.228 2.30822 -4.42896 -35.6238 -103.3 42.2278 -97.131 -9.92239 47.1131 5.10231 3.67503 0.0682993 3.40388 0.437115 -1.37605 46.4345 -68.1935 -37.6816 96.7894 0.437247 -8.15381 17.9146 9.87676 -0.531193 -6.92463 -56.6033 -6.97424 92.802 3.72556 27.2691 -9.97704 9.70714 7.90376 -1.37488 -12.4326 -31.2943 3.25867 -42.9964 0.121144 78.4275 11.8018 76.3184 -8.64466 -6.29862 5.23037 0.848754 0.142758 -2.10679 -4.42285 
-41.602 104.659 32.878 -77.6784 -7.79185 -178.33 -70.1915 0 88.8779 100.621 69.5559 -19.5892 0.823532 17.874 5.67689 -145.273 20.1254 170.538 -144.48 57.0761 169.167 2.30988 -4.36926 -35.3895 -100.371 42.5598 -101.873 -7.70584 45.3665 0.961376 4.54157 0.0751774 3.26622 0.428546 -1.3504 46.3741 -70.065 -37.9686 93.7653 -0.0190865 -9.54158 17.1479 9.98793 -0.504929 -6.52673 -58.2491 -6.35752 93.6888 4.15677 27.6387 -11.8712 9.77069 6.50093 -1.36953 -12.8508 -32.1791 3.0476 -40.0967 -0.0825377 77.0437 8.05068 71.5409 -4.48081 -6.50687 3.94256 0.902174 -0.944139 -7.45641 -5.8297 
-45.2185 104.638 33.1851 -77.4464 -8.85077 -177.91 -70.1915 0 88.8779 99.6517 69.354 -19.0754 0.59014 17.4028 6.45764 -144.796 20.1973 170.121 -144.236 57.2299 169.458 2.19646 -4.81021 -35.1484 -97.2444 42.4443 -106.51 -6.11318 42.0573 -2.9217 6.63733 0.0416679 2.25075 0.461241 -1.44875 46.5591 -74.2902 -38.0377 89.6255 -0.452231 -12.8556 15.8714 10.1753 -0.404759 -5.20891 -60.0829 -5.83518 94.603 4.38988 27.7808 -13.7552 9.42905 5.42244 -1.29929 -13.2754 -33.1224 2.93571 -38.3175 -0.439933 75.899 5.17218 64.2485 -0.658859 -6.24193 3.61108 0.866544 -1.53729 -10.3938 -8.16019 
-48.8741 104.471 33.4798 -77.0018 -9.94415 -177.642 -70.1915 0 88.8779 97.7079 69.0009 -17.94 0.55096 16.6934 7.30884 -145.785 20.1305 169.833 -144.403 57.0407 168.493 2.20463 -4.69053 -34.7579 -92.7064 41.9122 -111.729 -2.41587 41.2299 -8.31561 4.29536 -0.00755112 1.30001 0.434831 -1.36642 46.5638 -77.7107 -38.0092 86.3879 -1.0751 -14.915 14.7242 9.32484 -0.337228 -4.7981 -61.6322 -5.37782 95.4489 4.47057 28.0572 -15.3693 9.22155 3.90172 -1.25305 -13.4284 -33.1977 2.45044 -37.549 -1.13781 74.5165 2.94199 54.3967 0.405094 -5.41279 1.80358 0.783202 -1.6681 -10.5768 -6.30229 
